<svg xmlns="http://www.w3.org/2000/svg" xmlns:xlink="http://www.w3.org/1999/xlink" width="460pt" height="630pt" viewBox="0.00 0.00 459.80 629.60">
<g id="graph0" class="graph" transform="scale(1 1) rotate(0) translate(4 625.6)">
<title>looper_fsm</title>
<polygon fill="white" stroke="none" points="-4,4 -4,-625.6 455.8,-625.6 455.8,4 -4,4"/>
<!-- Startup -->
<g id="node1" class="node">
<title>Startup</title>
<ellipse fill="lightgray" stroke="black" cx="201.4" cy="-618" rx="3.6" ry="3.6"/>
</g>
<!-- Waiting -->
<g id="node2" class="node">
<title>Waiting</title>
<ellipse fill="lightgray" stroke="black" cx="201.4" cy="-460" rx="50.4" ry="50.4"/>
<text text-anchor="middle" x="201.4" y="-455.5" font-family="Helvetica,sans-Serif" font-size="15.00">WAITING</text>
</g>
<!-- Startup&#45;&gt;Waiting -->
<g id="edge1" class="edge">
<title>Startup-&gt;Waiting</title>
<path fill="none" stroke="black" d="M201.4,-614.02C201.4,-602.49 201.4,-559.57 201.4,-522.1"/>
<polygon fill="black" stroke="black" points="204.9,-522.2 201.4,-512.2 197.9,-522.2 204.9,-522.2"/>
<text text-anchor="middle" x="234.75" y="-557.9" font-family="Helvetica,sans-Serif" font-size="15.00">Power On</text>
</g>
<!-- Playing -->
<g id="node3" class="node">
<title>Playing</title>
<ellipse fill="lightgray" stroke="black" cx="126.4" cy="-255.2" rx="50.4" ry="50.4"/>
<text text-anchor="middle" x="126.4" y="-250.7" font-family="Helvetica,sans-Serif" font-size="15.00">PLAYING</text>
</g>
<!-- Waiting&#45;&gt;Playing -->
<g id="edge2" class="edge">
<title>Waiting-&gt;Playing</title>
<path fill="none" stroke="black" d="M151.44,-450.74C104.87,-440.1 37.99,-416.63 6.33,-366.6 -16.22,-330.97 28.07,-299.45 69.08,-279.3"/>
<polygon fill="black" stroke="black" points="70.48,-282.51 78.03,-275.07 67.49,-276.18 70.48,-282.51"/>
<text text-anchor="middle" x="58.86" y="-353.1" font-family="Helvetica,sans-Serif" font-size="15.00">BLE Connected</text>
</g>
<!-- Playing&#45;&gt;Waiting -->
<g id="edge3" class="edge">
<title>Playing-&gt;Waiting</title>
<path fill="none" stroke="black" d="M143.61,-302.75C154.47,-332.1 168.57,-370.23 180.13,-401.48"/>
<polygon fill="black" stroke="black" points="176.82,-402.63 183.57,-410.8 183.39,-400.21 176.82,-402.63"/>
<text text-anchor="middle" x="227.85" y="-353.1" font-family="Helvetica,sans-Serif" font-size="15.00">BLE Disconnected</text>
</g>
<!-- Recording -->
<g id="node4" class="node">
<title>Recording</title>
<ellipse fill="lightgray" stroke="black" cx="401.4" cy="-255.2" rx="50.4" ry="50.4"/>
<text text-anchor="middle" x="401.4" y="-250.7" font-family="Helvetica,sans-Serif" font-size="15.00">RECORDING</text>
</g>
<!-- Playing&#45;&gt;Recording -->
<g id="edge5" class="edge">
<title>Playing-&gt;Recording</title>
<path fill="none" stroke="black" d="M175.59,-242.57C191.19,-239.14 208.57,-235.9 224.72,-234.2 259.35,-230.54 268.44,-230.54 303.08,-234.2 315.44,-235.51 328.53,-237.71 340.99,-240.21"/>
<polygon fill="black" stroke="black" points="340.22,-243.63 350.73,-242.26 341.67,-236.78 340.22,-243.63"/>
<text text-anchor="middle" x="263.9" y="-238.7" font-family="Helvetica,sans-Serif" font-size="15.00">Short Press</text>
</g>
<!-- Switching -->
<g id="node5" class="node">
<title>Switching</title>
<ellipse fill="lightgray" stroke="black" cx="126.4" cy="-50.4" rx="50.4" ry="50.4"/>
<text text-anchor="middle" x="126.4" y="-54.9" font-family="Helvetica,sans-Serif" font-size="15.00">TRACK</text>
<text text-anchor="middle" x="126.4" y="-36.9" font-family="Helvetica,sans-Serif" font-size="15.00">SWITCH</text>
</g>
<!-- Playing&#45;&gt;Switching -->
<g id="edge7" class="edge">
<title>Playing-&gt;Switching</title>
<path fill="none" stroke="black" d="M86.25,-224.65C67.65,-208.43 47.5,-186.57 37.52,-161.8 25.59,-132.2 48.57,-104.25 74.14,-83.88"/>
<polygon fill="black" stroke="black" points="76.17,-86.74 82.03,-77.92 71.94,-81.15 76.17,-86.74"/>
<text text-anchor="middle" x="75.46" y="-148.3" font-family="Helvetica,sans-Serif" font-size="15.00">Long Press</text>
</g>
<!-- Recording&#45;&gt;Waiting -->
<g id="edge4" class="edge">
<title>Recording-&gt;Waiting</title>
<path fill="none" stroke="black" d="M370.34,-295.5C352.63,-317.16 329.61,-344.13 307.4,-366.6 289.18,-385.04 267.83,-404.08 249.09,-420.05"/>
<polygon fill="black" stroke="black" points="246.94,-417.28 241.57,-426.41 251.46,-422.63 246.94,-417.28"/>
<text text-anchor="middle" x="385.47" y="-353.1" font-family="Helvetica,sans-Serif" font-size="15.00">BLE Disconnected</text>
</g>
<!-- Recording&#45;&gt;Playing -->
<g id="edge6" class="edge">
<title>Recording-&gt;Playing</title>
<path fill="none" stroke="black" d="M350.93,-255.2C305.2,-255.2 237.64,-255.2 188.58,-255.2"/>
<polygon fill="black" stroke="black" points="188.67,-251.7 178.67,-255.2 188.67,-258.7 188.67,-251.7"/>
<text text-anchor="middle" x="263.9" y="-262.7" font-family="Helvetica,sans-Serif" font-size="15.00">1-bar Complete</text>
</g>
<!-- Switching&#45;&gt;Playing -->
<g id="edge8" class="edge">
<title>Switching-&gt;Playing</title>
<path fill="none" stroke="black" d="M127.15,-101.14C127.36,-120.12 127.51,-141.96 127.4,-161.8 127.34,-171.93 127.25,-182.69 127.15,-193.14"/>
<polygon fill="black" stroke="black" points="123.66,-192.78 127.05,-202.82 130.66,-192.85 123.66,-192.78"/>
<text text-anchor="middle" x="194.98" y="-148.3" font-family="Helvetica,sans-Serif" font-size="15.00">Long Press Release</text>
</g>
</g>
</svg>